{
  "asset": {
    "generator": "Khronos glTF Blender I/O v5.1.19",
    "version": "2.0"
  },
  "scene": 0,
  "scenes": [
    {
      "name": "Scene",
      "nodes": [
        0
      ]
    }
  ],
  "nodes": [
    {
      "mesh": 0,
      "name": "modified_thermos"
    }
  ],
  "materials": [
    {
      "doubleSided": true,
      "name": "modified_thermos",
      "normalTexture": {
        "index": 0
      },
      "pbrMetallicRoughness": {
        "baseColorTexture": {
          "index": 1
        },
        "metallicRoughnessTexture": {
          "index": 2
        }
      }
    }
  ],
  "meshes": [
    {
      "name": "Mesh.004",
      "primitives": [
        {
          "attributes": {
            "POSITION": 0,
            "NORMAL": 1,
            "TEXCOORD_0": 2
          },
          "indices": 3,
          "material": 0
        }
      ]
    }
  ],
  "textures": [
    {
      "sampler": 0,
      "source": 0
    },
    {
      "sampler": 0,
      "source": 1
    },
    {
      "sampler": 0,
      "source": 2
    }
  ],
  "images": [
    {
      "mimeType": "image/jpeg",
      "name": "modified_thermos_nor_gl",
      "uri": "textures/modified_thermos_nor_gl_1k.jpg"
    },
    {
      "mimeType": "image/jpeg",
      "name": "modified_thermos_diff",
      "uri": "textures/modified_thermos_diff_1k.jpg"
    },
    {
      "mimeType": "image/jpeg",
      "name": "modified_thermos_metal-modified_thermos_rough",
      "uri": "textures/modified_thermos_arm_1k.jpg"
    }
  ],
  "accessors": [
    {
      "bufferView": 0,
      "componentType": 5126,
      "count": 9408,
      "max": [
        0.0921388790011406,
        0.3060409724712372,
        0.05053623393177986
      ],
      "min": [
        -0.050536200404167175,
        -0.00018321066454518586,
        -0.05053620785474777
      ],
      "type": "VEC3"
    },
    {
      "bufferView": 1,
      "componentType": 5126,
      "count": 9408,
      "type": "VEC3"
    },
    {
      "bufferView": 2,
      "componentType": 5126,
      "count": 9408,
      "type": "VEC2"
    },
    {
      "bufferView": 3,
      "componentType": 5123,
      "count": 34728,
      "type": "SCALAR"
    }
  ],
  "bufferViews": [
    {
      "buffer": 0,
      "byteLength": 112896,
      "byteOffset": 0,
      "target": 34962
    },
    {
      "buffer": 0,
      "byteLength": 112896,
      "byteOffset": 112896,
      "target": 34962
    },
    {
      "buffer": 0,
      "byteLength": 75264,
      "byteOffset": 225792,
      "target": 34962
    },
    {
      "buffer": 0,
      "byteLength": 69456,
      "byteOffset": 301056,
      "target": 34963
    }
  ],
  "samplers": [
    {
      "magFilter": 9729,
      "minFilter": 9987
    }
  ],
  "buffers": [
    {
      "byteLength": 370512,
      "uri": "modified_thermos.bin"
    }
  ]
}